<svg width="29" height="30" viewBox="0 0 29 30" fill="none" xmlns="http://www.w3.org/2000/svg">
<g clip-path="url(#clip0_2_25)">
<path d="M29 15.0888C29 7.03045 22.5077 0.498199 14.5 0.498199C6.48877 0.500012 -0.00360107 7.03045 -0.00360107 15.0906C-0.00360107 22.3715 5.29977 28.4071 12.2308 29.5018V19.3065H8.5514V15.0906H12.2344V11.8734C12.2344 8.21764 14.4003 6.19851 17.7118 6.19851C19.2995 6.19851 20.958 6.48307 20.958 6.48307V10.0718H19.1292C17.3293 10.0718 16.7675 11.1974 16.7675 12.3519V15.0888H20.7876L20.146 19.3047H16.7656V29.5C23.6966 28.4053 29 22.3696 29 15.0888Z" fill="#04B4FC"/>
</g>
<defs>
<clipPath id="clip0_2_25">
<rect width="29" height="29" fill="white" transform="translate(0 0.5)"/>
</clipPath>
</defs>
</svg>
