<svg width="17" height="16" viewBox="0 0 17 16" fill="none" xmlns="http://www.w3.org/2000/svg">
<path fill-rule="evenodd" clip-rule="evenodd" d="M2.37208 4.646C2.41853 4.59944 2.4737 4.56249 2.53445 4.53729C2.59519 4.51208 2.66032 4.49911 2.72608 4.49911C2.79185 4.49911 2.85697 4.51208 2.91772 4.53729C2.97846 4.56249 3.03364 4.59944 3.08008 4.646L8.72608 10.293L14.3721 4.646C14.4186 4.59951 14.4738 4.56264 14.5345 4.53748C14.5952 4.51232 14.6603 4.49937 14.7261 4.49937C14.7918 4.49937 14.8569 4.51232 14.9177 4.53748C14.9784 4.56264 15.0336 4.59951 15.0801 4.646C15.1266 4.69249 15.1634 4.74768 15.1886 4.80842C15.2138 4.86916 15.2267 4.93426 15.2267 5C15.2267 5.06574 15.2138 5.13085 15.1886 5.19158C15.1634 5.25232 15.1266 5.30751 15.0801 5.354L9.08008 11.354C9.03364 11.4006 8.97846 11.4375 8.91772 11.4627C8.85697 11.4879 8.79185 11.5009 8.72608 11.5009C8.66032 11.5009 8.59519 11.4879 8.53445 11.4627C8.4737 11.4375 8.41853 11.4006 8.37208 11.354L2.37208 5.354C2.32552 5.30756 2.28858 5.25238 2.26337 5.19163C2.23816 5.13089 2.22519 5.06577 2.22519 5C2.22519 4.93423 2.23816 4.86911 2.26337 4.80837C2.28858 4.74762 2.32552 4.69245 2.37208 4.646Z" fill="#04B4FC"/>
</svg>
