<svg width="17" height="18" viewBox="0 0 17 18" fill="none" xmlns="http://www.w3.org/2000/svg">
<g clip-path="url(#clip0_2_28)">
<path d="M8.5 0.5C6.19331 0.5 5.90325 0.510625 4.99694 0.551C4.09063 0.5935 3.47331 0.735875 2.9325 0.94625C2.36522 1.15962 1.8514 1.49432 1.42694 1.92694C0.994581 2.35161 0.659926 2.86538 0.44625 3.4325C0.235875 3.97225 0.0924375 4.59062 0.051 5.49375C0.010625 6.40219 0 6.69119 0 9.00106C0 11.3088 0.010625 11.5978 0.051 12.5041C0.0935 13.4094 0.235875 14.0267 0.44625 14.5675C0.664062 15.1264 0.954125 15.6002 1.42694 16.0731C1.89869 16.5459 2.37256 16.837 2.93144 17.0537C3.47331 17.2641 4.08956 17.4076 4.99481 17.449C5.90219 17.4894 6.19119 17.5 8.5 17.5C10.8088 17.5 11.0968 17.4894 12.0041 17.449C12.9083 17.4065 13.5278 17.2641 14.0686 17.0537C14.6355 16.8403 15.1489 16.5056 15.5731 16.0731C16.0459 15.6002 16.3359 15.1264 16.5537 14.5675C16.7631 14.0267 16.9065 13.4094 16.949 12.5041C16.9894 11.5978 17 11.3088 17 9C17 6.69119 16.9894 6.40219 16.949 5.49481C16.9065 4.59063 16.7631 3.97225 16.5537 3.4325C16.3401 2.86536 16.0054 2.35159 15.5731 1.92694C15.1487 1.49416 14.6349 1.15944 14.0675 0.94625C13.5256 0.735875 12.9073 0.592437 12.0031 0.551C11.0957 0.510625 10.8077 0.5 8.49788 0.5H8.50106H8.5ZM7.73819 2.03212H8.50106C10.7706 2.03212 11.0394 2.03956 11.9351 2.081C12.7638 2.11819 13.2143 2.25738 13.5139 2.37319C13.9102 2.52725 14.1939 2.71213 14.4914 3.00962C14.7889 3.30713 14.9728 3.58975 15.1268 3.98713C15.2437 4.28569 15.3818 4.73619 15.419 5.56494C15.4604 6.46063 15.4689 6.72944 15.4689 8.99788C15.4689 11.2663 15.4604 11.5362 15.419 12.4319C15.3818 13.2606 15.2426 13.7101 15.1268 14.0097C14.9905 14.3788 14.773 14.7125 14.4904 14.9861C14.1929 15.2836 13.9103 15.4674 13.5129 15.6215C13.2154 15.7384 12.7649 15.8765 11.9351 15.9148C11.0394 15.9551 10.7706 15.9647 8.50106 15.9647C6.23156 15.9647 5.96169 15.9551 5.066 15.9148C4.23725 15.8765 3.78781 15.7384 3.48819 15.6215C3.11897 15.4854 2.78495 15.2683 2.51069 14.9861C2.2278 14.712 2.00996 14.378 1.87319 14.0086C1.75738 13.7101 1.61819 13.2596 1.581 12.4308C1.54063 11.5351 1.53212 11.2663 1.53212 8.99575C1.53212 6.72625 1.54063 6.4585 1.581 5.56281C1.61925 4.73406 1.75738 4.28356 1.87425 3.98394C2.02831 3.58763 2.21319 3.30394 2.51069 3.00644C2.80819 2.70894 3.09081 2.52513 3.48819 2.37106C3.78781 2.25419 4.23725 2.11606 5.066 2.07781C5.85013 2.04169 6.154 2.03106 7.73819 2.03V2.03212ZM13.0379 3.44313C12.904 3.44313 12.7714 3.46951 12.6476 3.52077C12.5238 3.57203 12.4114 3.64716 12.3167 3.74188C12.222 3.83659 12.1468 3.94904 12.0956 4.07279C12.0443 4.19654 12.0179 4.32918 12.0179 4.46312C12.0179 4.59707 12.0443 4.72971 12.0956 4.85346C12.1468 4.97721 12.222 5.08966 12.3167 5.18437C12.4114 5.27909 12.5238 5.35422 12.6476 5.40548C12.7714 5.45674 12.904 5.48313 13.0379 5.48313C13.3085 5.48313 13.5679 5.37566 13.7592 5.18437C13.9505 4.99309 14.0579 4.73365 14.0579 4.46312C14.0579 4.1926 13.9505 3.93316 13.7592 3.74188C13.5679 3.55059 13.3085 3.44313 13.0379 3.44313ZM8.50106 4.63525C7.92208 4.62622 7.34707 4.73245 6.80954 4.94777C6.272 5.1631 5.78267 5.4832 5.37004 5.88945C4.9574 6.2957 4.6297 6.77998 4.40602 7.31409C4.18234 7.8482 4.06714 8.42147 4.06714 9.00053C4.06714 9.57959 4.18234 10.1529 4.40602 10.687C4.6297 11.2211 4.9574 11.7054 5.37004 12.1116C5.78267 12.5179 6.272 12.838 6.80954 13.0533C7.34707 13.2686 7.92208 13.3748 8.50106 13.3658C9.64701 13.3479 10.74 12.8802 11.544 12.0635C12.3481 11.2467 12.7988 10.1466 12.7988 9.00053C12.7988 7.85444 12.3481 6.75431 11.544 5.93761C10.74 5.1209 9.64701 4.65313 8.50106 4.63525ZM8.50106 6.16631C9.2526 6.16631 9.97336 6.46486 10.5048 6.99628C11.0362 7.5277 11.3348 8.24846 11.3348 9C11.3348 9.75154 11.0362 10.4723 10.5048 11.0037C9.97336 11.5351 9.2526 11.8337 8.50106 11.8337C7.74952 11.8337 7.02876 11.5351 6.49734 11.0037C5.96592 10.4723 5.66738 9.75154 5.66738 9C5.66738 8.24846 5.96592 7.5277 6.49734 6.99628C7.02876 6.46486 7.74952 6.16631 8.50106 6.16631Z" fill="white"/>
</g>
<defs>
<clipPath id="clip0_2_28">
<rect width="17" height="17" fill="white" transform="translate(0 0.5)"/>
</clipPath>
</defs>
</svg>
