<svg width="17" height="16" viewBox="0 0 17 16" fill="none" xmlns="http://www.w3.org/2000/svg">
<g clip-path="url(#clip0_1_2076)">
<path d="M12.0331 10.344C13.0014 9.0227 13.4351 7.3845 13.2474 5.75716C13.0597 4.12982 12.2645 2.63335 11.0209 1.56714C9.77724 0.50093 8.17687 -0.0563875 6.53996 0.00668566C4.90304 0.0697588 3.3503 0.748571 2.19239 1.90732C1.03447 3.06606 0.356771 4.61929 0.294869 6.25624C0.232967 7.8932 0.791429 9.49317 1.85853 10.7361C2.92563 11.9789 4.42266 12.7731 6.05014 12.9596C7.67761 13.1461 9.3155 12.7112 10.6361 11.742H10.6351C10.6651 11.782 10.6971 11.82 10.7331 11.857L14.5831 15.707C14.7706 15.8946 15.025 16.0001 15.2903 16.0002C15.5555 16.0003 15.81 15.895 15.9976 15.7075C16.1853 15.52 16.2907 15.2656 16.2908 15.0004C16.2909 14.7351 16.1856 14.4806 15.9981 14.293L12.1481 10.443C12.1124 10.4068 12.0739 10.3734 12.0331 10.343V10.344ZM12.2911 6.50001C12.2911 7.22228 12.1489 7.93748 11.8725 8.60477C11.5961 9.27206 11.1909 9.87837 10.6802 10.3891C10.1695 10.8998 9.56317 11.3049 8.89588 11.5813C8.22859 11.8577 7.51339 12 6.79112 12C6.06885 12 5.35365 11.8577 4.68636 11.5813C4.01907 11.3049 3.41275 10.8998 2.90203 10.3891C2.39131 9.87837 1.98618 9.27206 1.70978 8.60477C1.43338 7.93748 1.29112 7.22228 1.29112 6.50001C1.29112 5.04132 1.87058 3.64237 2.90203 2.61092C3.93348 1.57947 5.33243 1.00001 6.79112 1.00001C8.24981 1.00001 9.64876 1.57947 10.6802 2.61092C11.7117 3.64237 12.2911 5.04132 12.2911 6.50001Z" fill="#212529"/>
</g>
<defs>
<clipPath id="clip0_1_2076">
<rect width="16" height="16" fill="white" transform="translate(0.291138)"/>
</clipPath>
</defs>
</svg>
