<svg width="17" height="16" viewBox="0 0 17 16" fill="none" xmlns="http://www.w3.org/2000/svg">
<g clip-path="url(#clip0_1_2060)">
<path d="M12.4146 10.3441C13.3829 9.02282 13.8166 7.38462 13.629 5.75728C13.4413 4.12994 12.6461 2.63347 11.4024 1.56726C10.1588 0.501052 8.5584 -0.0562654 6.92149 0.00680773C5.28457 0.0698809 3.73184 0.748693 2.57392 1.90744C1.416 3.06618 0.738301 4.61941 0.676399 6.25636C0.614498 7.89332 1.17296 9.49329 2.24006 10.7362C3.30716 11.9791 4.8042 12.7732 6.43167 12.9597C8.05914 13.1462 9.69703 12.7114 11.0177 11.7421H11.0167C11.0466 11.7821 11.0787 11.8201 11.1147 11.8571L14.9647 15.7071C15.1522 15.8948 15.4065 16.0002 15.6718 16.0003C15.9371 16.0004 16.1915 15.8951 16.3792 15.7076C16.5668 15.5201 16.6723 15.2658 16.6724 15.0005C16.6724 14.7352 16.5672 14.4808 16.3797 14.2931L12.5297 10.4431C12.4939 10.4069 12.4555 10.3735 12.4146 10.3431V10.3441ZM12.6727 6.50013C12.6727 7.2224 12.5304 7.9376 12.254 8.60489C11.9776 9.27218 11.5725 9.8785 11.0617 10.3892C10.551 10.8999 9.9447 11.3051 9.27741 11.5815C8.61012 11.8579 7.89492 12.0001 7.17265 12.0001C6.45038 12.0001 5.73518 11.8579 5.06789 11.5815C4.4006 11.3051 3.79429 10.8999 3.28356 10.3892C2.77284 9.8785 2.36771 9.27218 2.09131 8.60489C1.81491 7.9376 1.67265 7.2224 1.67265 6.50013C1.67265 5.04144 2.25211 3.64249 3.28356 2.61104C4.31501 1.57959 5.71396 1.00013 7.17265 1.00013C8.63134 1.00013 10.0303 1.57959 11.0617 2.61104C12.0932 3.64249 12.6727 5.04144 12.6727 6.50013Z" fill="#212529"/>
</g>
<defs>
<clipPath id="clip0_1_2060">
<rect width="16" height="16" fill="white" transform="translate(0.672668 0.00012207)"/>
</clipPath>
</defs>
</svg>
