<svg width="19" height="20" viewBox="0 0 19 20" fill="none" xmlns="http://www.w3.org/2000/svg">
<path d="M5.96838 18.3125C13.1385 18.3125 17.0608 12.3714 17.0608 7.22837C17.0608 7.06212 17.0608 6.8935 17.0537 6.72725C17.8173 6.17445 18.4764 5.49005 19 4.70612C18.2867 5.02063 17.5308 5.22792 16.7568 5.32125C17.5721 4.83394 18.1827 4.06721 18.4751 3.16356C17.7092 3.61733 16.8708 3.93588 15.9968 4.10525C15.4092 3.47946 14.6317 3.0649 13.7846 2.92577C12.9375 2.78665 12.0682 2.93072 11.3113 3.33567C10.5544 3.74063 9.95221 4.38387 9.59791 5.16576C9.24361 5.94765 9.15702 6.82454 9.35156 7.66062C7.80157 7.5829 6.28522 7.18024 4.90086 6.47876C3.51651 5.77727 2.29506 4.79263 1.31575 3.58869C0.818591 4.44735 0.666869 5.46304 0.891392 6.4295C1.11592 7.39597 1.69985 8.24075 2.52462 8.79231C1.90658 8.77131 1.30212 8.60535 0.76 8.30781V8.36125C0.761066 9.26076 1.07268 10.1323 1.64216 10.8286C2.21165 11.5249 3.00408 12.0032 3.8855 12.1826C3.55094 12.2748 3.20533 12.3207 2.85831 12.3192C2.61367 12.3199 2.36951 12.2973 2.12919 12.2515C2.37831 13.0258 2.86339 13.7028 3.51648 14.1877C4.16957 14.6726 4.95797 14.941 5.77125 14.9554C4.38966 16.0406 2.68304 16.6291 0.92625 16.6262C0.616693 16.6276 0.307352 16.6097 0 16.5728C1.78305 17.7096 3.85379 18.3132 5.96838 18.3125Z" fill="white"/>
</svg>
